# xmcd CD database file
#
# Track frame offsets:
#	150
#	23202
#	41970
#	61412
#	76325
#	97762
#	124852
#	149855
#	163872
#	187385
#	206427
#	219790
#
# Disc length: 3120 seconds
#
# Revision: 0
# Processed by: cddbd v1.5.1PL0 Copyright (c) Steve Scherf et al.
# Submitted via: CDex 1.51
#
DISCID=b20c2e0c
DTITLE=the Silent Jazz Trio - the Silent Jazz Trio
DYEAR=2004
DGENRE=Jazz
TTITLE0=you'd be so nice to come home to
TTITLE1=sunny
TTITLE2=night and day
TTITLE3=stella by starlight
TTITLE4=sesame street theme
TTITLE5=misty
TTITLE6=all the things you are
TTITLE7=puff
TTITLE8=my romance
TTITLE9=both sides, now
TTITLE10=coo blues
TTITLE11=moon river
EXTD=YEAR: 2004
EXTT0=
EXTT1=
EXTT2=
EXTT3=
EXTT4=
EXTT5=
EXTT6=
EXTT7=
EXTT8=
EXTT9=
EXTT10=
EXTT11=
PLAYORDER=
